<?xml version="1.0" encoding="utf-8"?>

<!DOCTYPE svg PUBLIC "-//W3C//DTD SVG 1.1//EN" "http://www.w3.org/Graphics/SVG/1.1/DTD/svg11.dtd">
<svg version="1.1" id="Layer_1" xmlns="http://www.w3.org/2000/svg" xmlns:xlink="http://www.w3.org/1999/xlink" x="0px" y="0px"
	 viewBox="0 0 1920 1917" enable-background="new 0 0 1920 1917" xml:space="preserve">
<g>
	<path fill="#E5E7D2" d="M0,0h473.46c-0.01,20,0.01,40-0.01,59.99c0.05,3.86-0.34,7.75,0.22,11.58c1.4,1.34,3.17,2.19,4.83,3.17
		c-1.04,0.17-2.08,0.34-3.11,0.52c-7.31-6.29-17.17-7.4-26.37-8.47c-8.86-0.5-17.66,1.46-26.1,3.97c-3.69,1.04-7.03,3.24-10.86,3.7
		c-5.61-0.64-10.41-4.13-15.96-5.07c-18.05-3.38-36.49,1.84-52.64,9.8c-8.51,3.76-15.92,9.47-23.44,14.85
		c-7.1,5.52-14.61,10.52-21.41,16.43c-9.68,9.35-20.1,17.95-28.99,28.1c-4.8,5.57-10.35,10.42-15.13,15.99
		c-21.13,25.23-40.87,51.62-59.26,78.9c-9.71,12.76-18.41,26.24-27.02,39.76c-6.54,10.42-14.58,19.87-20.33,30.78
		c-3.59,6.89-8.38,13.04-12.16,19.82c-7.82,12.38-15.46,24.91-22.03,38.01c-5.53,10.57-11.44,20.98-16.03,32.01
		c-7.57,14.64-12.93,30.25-18.58,45.68c-3.95,12.9-7.53,25.91-10.72,39.02c-0.89,4.63-0.77,9.42-2.11,13.98
		c-1.8,6.32-2.51,12.88-2.65,19.44c-0.3,12.64-0.45,25.57,3.28,37.8c2.8,13.17,7.72,25.95,15.09,37.25
		c4.08,7.59,9.76,14.13,15.45,20.54c10.17,10.16,21.58,19.44,34.84,25.25c10.78,4.75,21.8,9.62,33.66,10.76
		c7.7,0.76,15.36,2.51,23.14,1.94c6.17-0.22,12.37-1.81,18.53-0.75c4.09,1.35,7.17,4.57,10.5,7.16
		c8.76,7.54,18.94,13.13,29.05,18.63c-3.4,6.48-5.65,13.48-8.27,20.3c-14.98,40.18-27.69,81.19-38.36,122.72
		c-55.96,216.6299-85.94,439.85-90.78,663.5001c-2.43,128.1599,2.37,256.61,18.09,383.8899c2.06,18.7301,5.15,37.3401,7.33,56.05H0
		V0z"/>
	<path fill="#AAD19A" d="M473.46,0h271.22c-0.29,1.63-0.52,3.27-0.57,4.93c-0.02,198.9,0.1,397.79-0.06,596.69
		c-13.77,12.01-26.87,24.75-40.16,37.28c-9.7,8.61-18.61,18.05-27.99,26.99c-23.32,22.69-45.98,46.11-66.89,71.05
		c-22.89,27.17-43.32,56.45-60.33,87.66c-15.39,28.12-27.76,58.06-34.8,89.39c-3.99,19.41-6.88,39.36-4.67,59.2
		c2.17,25.23,11.43,49.81,26.43,70.21c13.64,18.66,31.63,33.8199,51.54,45.4299c13.67,9.0701,28.33,16.7201,43.92,21.9601
		c36.17,12.71,75.91,12.27,112.96,3.74c0.14,103.9199,0.02,207.84,0.06,311.76c15.16-8.67,30.27-17.4401,45.83-25.39
		c12.43-6.24,24.65-13.16,38.02-17.26c5.77,11.51,14.1,21.41,21.94,31.53c-14.8199,9.8999-29.87,19.46-45.35,28.2799
		c-18.67,10.74-36.68,22.5601-54.64,34.42c-2.14,1.72-6,2.77-5.79,6.12c-0.01,144.33-0.02,288.67,0,433.01H473.11
		c0.8-10.96,0.14-21.97,0.35-32.9399c-0.12-43.91,0.25-87.8301-0.18-131.7401c-22.48,30.8-44.37,62.0801-64.83,94.27
		c-14.96,23.0901-29.07,46.7101-43.04,70.41h-77.76c17.56-32.05,36.49-63.36,56.17-94.15c19.86-31.03,40.87-61.36,63.68-90.3099
		c20.82-26.79,43.01-52.49,65.88-77.54c0.19-112.6801,0.03-225.36,0.08-338.04c-0.09-8.23,0.31-16.46-0.33-24.6699
		c-19.61,34.1899-36.88,69.6799-53.48,105.4099c-75.23,164.91-125.48,340.63-154.95,519.3h-50.85
		c14.31-87.79,33.4-174.83,57.77-260.38c42.2-147.05,101.71-289.4399,180.12-420.9301c5.39-8.9199,10.83-17.7999,16.5-26.5299
		c2.16-3.4701,5.36-6.78,5.22-11.14c-0.01-139.34,0-278.69,0-418.03c-0.09-47.24,0.19-94.47-0.14-141.7
		c13.44-11.15,26.26-23.14,37.23-36.7599c22.2-26.77,39.25-57.52,52.33-89.67c8.33-21.05,14.82-42.87,18.68-65.2
		c2.51-13.76,3.05-27.75,3.76-41.68c0.89-39.45-2.56-78.95-9.58-117.76c-6.62-36.16-14.9-72.11-26.95-106.87
		c-7.21-20.51-15.63-40.7-26.82-59.38c-10.93-18.2-24.66-35.7-43.47-46.23c-1.66-0.98-3.43-1.83-4.83-3.17
		c-0.56-3.83-0.17-7.72-0.22-11.58C473.47,40,473.45,20,473.46,0z"/>
	<path fill="#F8F3BC" d="M744.68,0h266.9c0.14,164,0.02,328.01,0.07,492.01c-0.02,3.03-0.12,6.06-0.22,9.1
		c-8.46,5.84-16.4,12.39-24.79,18.31c-28.55,19.75-59.35,36.27-91.47,49.41c2.07-7.05,5.14-13.75,7.27-20.78
		c4.82-16.4,9.46-33.07,10.04-50.26c0.34-13.82,0.6-27.94-3.37-41.33c-2.53-8.34-5.43-16.74-10.4-23.97
		c-1.87-0.01-3.72-0.02-5.57-0.04c-10.15,11.16-14.61,25.86-21.21,39.11c-7.98,16.31-18.53,31.32-30.89,44.6
		c-9.71,11.59-21.67,20.94-32.98,30.89c-20.95,18.64-43.09,35.89-64.01,54.57c0.16-198.9,0.04-397.79,0.06-596.69
		C744.16,3.27,744.39,1.63,744.68,0z"/>
	<path fill="#B4E1F8" d="M1011.58,0h268.07c-0.3201,108.98-0.05,217.97-0.14,326.96c0,112.66,0,225.33,0,337.99
		c-0.08,82.57,0.16,165.15-0.12,247.72c-10.5-3.91-21.34-7.07-32.51-8.2c-7.28-0.39-14.58-0.16-21.86-0.1299
		c-9.13-0.14-18.0601,2.03-27,3.5699c-37.36,8.59-72.51,25.5-103.8201,47.48c-24.0399,17.3-46.35,36.82-69.1399,55.71
		c-4.3201,3.57-8.4401,7.44-13.35,10.23c-0.21-25.11,0.0099-50.22-0.07-75.33c-0.07-8.74,0.24-17.48-0.3-26.19
		c-11.46,14.3-22.47,29.04-35.17,42.31c-10.61,12.39-21.94,24.15-33.79,35.35c-6.77,6.19-13.71,12.19-20.38,18.4901
		c-29.55,25.56-61.52,48.47-95.99,66.97c-25.95,13.6599-53.32,24.95-81.95,31.6c-37.05,8.53-76.79,8.97-112.96-3.74
		c-15.59-5.24-30.25-12.89-43.92-21.9601c-19.91-11.61-37.9-26.7699-51.54-45.4299c-15-20.4-24.26-44.98-26.43-70.21
		c-2.21-19.84,0.68-39.79,4.67-59.2c7.04-31.33,19.41-61.27,34.8-89.39c17.01-31.21,37.44-60.49,60.33-87.66
		c20.91-24.94,43.57-48.36,66.89-71.05c9.38-8.94,18.29-18.38,27.99-26.99c13.29-12.53,26.39-25.27,40.16-37.28
		c20.92-18.68,43.06-35.93,64.01-54.57c11.31-9.95,23.27-19.3,32.98-30.89c12.36-13.28,22.91-28.29,30.89-44.6
		c6.6-13.25,11.06-27.95,21.21-39.11c1.85,0.02,3.7,0.03,5.57,0.04c4.97,7.23,7.87,15.63,10.4,23.97
		c3.97,13.39,3.71,27.51,3.37,41.33c-0.58,17.19-5.22,33.86-10.04,50.26c-2.13,7.03-5.2,13.73-7.27,20.78
		c32.12-13.14,62.92-29.66,91.47-49.41c8.39-5.92,16.33-12.47,24.79-18.31c0.1-3.04,0.2-6.07,0.22-9.1
		C1011.6,328.01,1011.72,164,1011.58,0 M874.56,486.6c-6.22,12.27-13.21,24.29-22.33,34.65c-9.6,11.36-20.09,21.95-31.16,31.88
		c-22.88,21.31-48.49,39.41-71.94,60.07c-20.04,17.22-39.26,35.37-57.82,54.17c-5.81,5.95-11.94,11.6-17.36,17.93
		c35.03-32.06,75.04-58.87,118.75-77.61c18.95-8.48,38.88-14.43,58.29-21.7c12.79-4.81,25.75-9.18,38.24-14.75
		c7.27-22.09,12.96-44.95,13.75-68.29c0.91-18.31-1.1-37.07-8.17-54.12C886.77,460.69,881.2,473.96,874.56,486.6 M949.8,553.82
		c-19.36,12.04-39.65,22.57-60.67,31.39c-2.27,0.81-2.9,3.37-3.93,5.28c-0.68-0.4-2.05-1.18-2.73-1.57l0.4-0.9
		c-45.68,18.43-93.21,32.69-136.7,56.2c-26.35,13.85-51.35,30.4901-73.41,50.54c-22.23,20.36-44.12,41.18-64.44,63.49
		c-8.9,9.32-16.07,20.1-23.59,30.53c-19.28,27.72-35.44,57.61-47.95,88.98C530.47,894.12,524.41,910.71,521.17,928
		c-5.39,28.09-3.88,57.78,6.32,84.63c7.16,19.04,18.61,36.47,33.32,50.54c10.88,10.86,23.84,19.4199,37.23,26.85
		c18.85,6.7,38.2401,12.02,57.9901,15.28c27.46,4.49,55.7599,3.8199,82.9399-2.1801c36.79-8.24,70.9901-25,103.57-43.5699
		c62.31-36.6801,115.29-87.66,159.26-144.73c20.82-27.61,38.6201-57.63,51.27-89.87c6.87-16.53,10.7301-34.17,12.91-51.89
		c3.5-26.67,3.27-53.91,10.0801-80.08c8.58-35.11,25.46-68.31,49.71-95.19c5.52-6.72,12.4-12.1,18.41-18.35
		c-6.42,0-12.8101,0.57-19.15,1.43c-34.22,4.53-67.87,16.11-96.3401,35.87c-3.5599,2.12-3.75,6.67-4.95,10.22
		c-7.11,24.19-15.73,47.89-24.13,71.65c-14.49,40.4-30.05,80.5-48.91,119.08c-16.66,33.39-35.35,66.05-59.06,94.98
		c-21.65,26.71-46.56,50.55-72.13,73.44c-0.37-0.33-1.11-1-1.48-1.34c24.39-23.23,47.93-47.47,68.68-74.04
		c24.74-31.38,44.54-66.36,61.47-102.47c17.15-36.72,31.51-74.72,43.47-113.43c5.69-19.06,11.45-38.16,15.35-57.68
		c-1.64,1.36-3.21,2.77-4.86,4.1c2.32-3.36,5.74-6.21,6.55-10.41c4.11-18.15,7.58-36.45,10.5-54.82
		c3.45-22.47,8.97-45.12,6.32-67.98C1000.32,523.38,975.09,538.66,949.8,553.82z"/>
	<path fill="#FAE0ED" d="M1279.65,0h276.78c-0.0601,639,0.0499,1278-0.05,1917h-276.97c0.23-109.66,0.0399-219.3199,0.1-328.98
		c0.1-41.98-0.21-83.96,0.16-125.9401c-0.77-0.26-1.54-0.51-2.28-0.74c5.25-0.6899,10.23-2.5,15.2-4.26
		c20.28-6.22,40.5701-12.5499,61.37-16.7899c5.04-1.04,9.91-2.8501,15.02-3.5801c10.64-1.38,21.23-3.2799,31.9501-4.0299
		c7.2599-0.41,14.5399-1.5901,21.8199-0.7001c6.73,0.86,13.58,0.0801,20.27,1.41c6.5699,1.35,13.35,0.9299,19.9299,2.2999
		c8.5801,1.7301,17.28,2.7201,25.9801,3.7201c12.1699,0.74,25.1699,1.1599,36.23-4.86c4.75-2.27,8.08-7.29,8.38-12.52
		c-0.7101-6.75-3.99-12.9501-7.91-18.39c-8.39-11.61-18.78-21.91-31.05-29.4c-8.7799-5.34-17.75-10.5599-27.5499-13.79
		c-5.78-2.6-11.87-4.3099-17.9401-6.0499c0.5701-1.99,1.74-3.6901,3.4701-4.8301c6.72-4.9199,11.58-11.7699,17.1299-17.87
		c5.5801-6.0499,9.7301-13.1899,13.91-20.23c5.8101-10.4299,11.26-21.45,12.7001-33.46c0.51-5.16,1.63-10.36,0.8899-15.54
		c-1.21-7.5-2.5499-15.1799-6.5699-21.75c-3.8099-7.9-10.66-13.6-15.54-20.75c-5.95-8.39-11.12-17.4099-14.7799-27.03
		c-4.41-10.4199-6.41-21.6-9.28-32.47c-2.3101-17.21-11.3-32.88-22.8-45.6c-14.61-13.8099-32.1599-24.54-51.08-31.29
		c-8.83-2.1599-17.5-5.64-26.73-5.34c-2.67-6.64-3.8301-13.83-7.11-20.23c-3.3-6.48-6.88-12.8101-10.2001-19.27
		c-2.5499-5.23-7.1899-9.01-9.86-14.15c-4.73-9.03-9.01-18.33-12.13-28.05c-5.46-19.09-4.23-39.38-9.67-58.48
		c-3.35-11.04-10.84-21.43-22.0499-25.39c0.28-82.57,0.04-165.15,0.12-247.72c0-112.66,0-225.33,0-337.99
		C1279.6,217.97,1279.33,108.98,1279.65,0z"/>
	<path fill="#FBC751" d="M1556.4301,0h276.2c-1.64,3.78-0.66,8.01-0.87,12c-0.22,6.35,0.3099,12.69,0.42,19.04
		c-0.4501,6.64-0.25,13.3-0.25,19.95c0.23,7-0.38,14,0.22,20.99c-0.49,11.69-0.6,23.41-0.1,35.1c-0.24,8.3-0.54,16.6-0.12,24.9
		c0.4099,6.01-0.5,12.02-0.0901,18.03c0.73,10.32,0.39,20.68-0.02,31.01c0.51,8.34-0.36,16.68-0.0199,25.03
		c0.0599,6.99,0.35,13.97,0.2899,20.95c-0.7899,8.66,0.3201,17.32-0.11,25.99c-0.54,13.65,0.53,27.32-0.23,40.96
		c-0.21,8.69,1.0699,17.36,0.25,26.04c-0.62,6.31,0.6,12.62,0.04,18.94c-0.89,12.34,0.39,24.7-0.27,37.05
		c0.8099,11.33-0.11,22.68,0.1799,34.03c0.1801,9.66-0.01,19.32-0.1899,28.98c0.72,7-0.04,13.99,0.02,21
		c0.74,8.68-0.54,17.36,0.26,26.05c-0.2101,6.98-0.4601,13.97,0.1499,20.95c-0.5599,11.67,0.1101,23.35-0.4299,35.02
		c-0.34,7.33,0.87,14.64,0.33,21.97c-0.6799,9.99-0.26,20.02-0.0299,30.01c-0.5901,7,0.4199,14.01-0.2001,21.01
		c-0.72,13.33,1.02,26.64-0.11,39.95c0.3,12.34,0.3199,24.69,0,37.04c0.13,5.33,0.8101,10.67,0.29,16.01c-0.76,7,0.63,14,0.08,21.01
		c-1.11,15.64,0.4401,31.32-0.39,46.97c0.27,6.67,0.75,13.36,0.1,20.04c-0.0499,12.31-0.36,24.65,0.4,36.95
		c0.1901,6.02-0.59,12.01-0.49,18.03c-0.1799,8.67,0.72,17.31,0.52,25.98c0.14,5.67-0.6901,11.32-0.33,16.99
		c0.6799,8.32-0.8,16.64,0.0299,24.97c0.67,6.36-0.51,12.72,0.04,19.09c0.4301,4.97-0.37,9.9399-0.25,14.92
		c0.6899,17.02-0.23,34.04,0.02,51.07c-0.35,10.34,0.71,20.6699,0,31c0.02,13.98-0.16,27.98,0.26,41.96
		c-0.73,10.01,0.1899,20.02-0.05,30.03c0.0701,7.3199-0.5499,14.65,0,21.98c-0.11,13.33-0.04,26.6801,0.0701,40.02
		c-0.62,9.3199,0.7699,18.65,0.01,27.99c-0.5901,6.01,0.3899,12.03-0.1001,18.04c-0.2999,4.2999-0.3099,8.61-0.0699,12.9199
		c0.46,7.01-0.58,14.03,0.02,21.04c0.71,7.35-0.66,14.7,0,22.05c0.5399,5.97-0.49,11.9399,0.02,17.9199
		c0.5699,6-0.53,12.01-0.03,18.03c0.52,6.6801-0.4,13.36-0.16,20.05c0.6901,21.6699-0.28,43.34,0.3101,65.01
		c0.62,6.98-0.37,13.97-0.3,20.97c0.02,12.33,0.03,24.6599-0.01,36.99c-0.1,6.3099,0.76,12.62,0.1801,18.9399
		c-0.55,7.01,0.1499,14.03,0.09,21.05c-0.48,13.33,0.73,26.65-0.25,39.97c0.51,12.66,0.23,25.3301,0.01,38
		c1.01,10.3101-0.48,20.63,0.01,30.97c0.76,10.7001-0.48,21.41,0.0499,32.12c0.6001,7.3101-0.4099,14.64,0.3401,21.9501
		c0.14,8.34-0.9601,16.6699-0.1901,25.02c0.73,8.6499-0.5599,17.3099,0.22,25.97c-1.3199,22.66,0.53,45.33-0.0299,68
		c-0.8,10.97,0.39,21.96-0.4,32.9399c0.74,8,0,16-0.03,24.01c0.72,9.3301-0.42,18.67,0.3,28.01c-0.63,9.01,0.7799,18.01-0.05,27.02
		c-0.6799,6.3201,0.49,12.64,0.04,18.98c-0.3401,4.66-0.3401,9.3401-0.23,14.03h-275.42C1556.48,1278,1556.37,639,1556.4301,0z"/>
	<path fill="#E5E7D2" d="M1832.63,0H1920v1917h-88.2c-0.1101-4.6899-0.1101-9.37,0.23-14.03c0.45-6.34-0.72-12.6599-0.04-18.98
		c0.83-9.01-0.58-18.01,0.05-27.02c-0.7201-9.34,0.4199-18.6799-0.3-28.01c0.03-8.01,0.77-16.01,0.03-24.01
		c0.79-10.98-0.4-21.97,0.4-32.9399c0.5599-22.67-1.29-45.34,0.0299-68c-0.7799-8.66,0.51-17.3201-0.22-25.97
		c-0.77-8.3501,0.3301-16.6801,0.1901-25.02c-0.75-7.3101,0.26-14.64-0.3401-21.9501c-0.5299-10.71,0.7101-21.4199-0.0499-32.12
		c-0.49-10.34,1-20.6599-0.01-30.97c0.22-12.6699,0.5-25.34-0.01-38c0.98-13.3199-0.23-26.64,0.25-39.97
		c0.0599-7.02-0.64-14.04-0.09-21.05c0.58-6.3199-0.28-12.63-0.1801-18.9399c0.04-12.3301,0.03-24.66,0.01-36.99
		c-0.0699-7,0.92-13.99,0.3-20.97c-0.5901-21.67,0.38-43.3401-0.3101-65.01c-0.24-6.6901,0.6801-13.37,0.16-20.05
		c-0.5-6.02,0.6-12.03,0.03-18.03c-0.51-5.98,0.5199-11.95-0.02-17.9199c-0.66-7.3501,0.71-14.7001,0-22.05
		c-0.6-7.01,0.4399-14.03-0.02-21.04c-0.24-4.3099-0.23-8.62,0.0699-12.9199c0.49-6.01-0.49-12.03,0.1001-18.04
		c0.7599-9.34-0.63-18.67-0.01-27.99c-0.1101-13.34-0.1801-26.6901-0.0701-40.02c-0.5499-7.33,0.0701-14.66,0-21.98
		c0.24-10.01-0.6799-20.02,0.05-30.03c-0.42-13.98-0.24-27.98-0.26-41.96c0.71-10.3301-0.35-20.66,0-31
		c-0.25-17.03,0.6699-34.05-0.02-51.07c-0.12-4.98,0.6801-9.95,0.25-14.92c-0.55-6.3701,0.63-12.73-0.04-19.09
		c-0.83-8.33,0.65-16.65-0.0299-24.97c-0.3601-5.67,0.47-11.3199,0.33-16.99c0.2-8.67-0.7-17.31-0.52-25.98
		c-0.1-6.02,0.6801-12.01,0.49-18.03c-0.76-12.3-0.45-24.64-0.4-36.95c0.65-6.68,0.17-13.37-0.1-20.04
		c0.8301-15.65-0.72-31.33,0.39-46.97c0.55-7.01-0.84-14.01-0.08-21.01c0.52-5.34-0.16-10.68-0.29-16.01
		c0.3199-12.35,0.3-24.7,0-37.04c1.13-13.31-0.61-26.62,0.11-39.95c0.62-7-0.39-14.01,0.2001-21.01
		c-0.2301-9.99-0.65-20.02,0.0299-30.01c0.54-7.33-0.6699-14.64-0.33-21.97c0.54-11.67-0.13-23.35,0.4299-35.02
		c-0.61-6.98-0.36-13.97-0.1499-20.95c-0.8-8.69,0.48-17.37-0.26-26.05c-0.0601-7.01,0.7-14-0.02-21
		c0.1799-9.66,0.37-19.32,0.1899-28.98c-0.2899-11.35,0.63-22.7-0.1799-34.03c0.66-12.35-0.62-24.71,0.27-37.05
		c0.5599-6.32-0.66-12.63-0.04-18.94c0.8199-8.68-0.46-17.35-0.25-26.04c0.76-13.64-0.3101-27.31,0.23-40.96
		c0.4301-8.67-0.6799-17.33,0.11-25.99c0.0601-6.98-0.23-13.96-0.2899-20.95c-0.3401-8.35,0.5299-16.69,0.0199-25.03
		c0.41-10.33,0.75-20.69,0.02-31.01c-0.4099-6.01,0.5-12.02,0.0901-18.03c-0.42-8.3-0.12-16.6,0.12-24.9
		c-0.5-11.69-0.39-23.41,0.1-35.1c-0.6-6.99,0.01-13.99-0.22-20.99c0-6.65-0.2001-13.31,0.25-19.95
		c-0.1101-6.35-0.64-12.69-0.42-19.04C1831.97,8.01,1830.99,3.78,1832.63,0z"/>
	<path fill="#FAE0ED" d="M422.92,70.76c8.44-2.51,17.24-4.47,26.1-3.97c9.2,1.07,19.06,2.18,26.37,8.47
		c1.03-0.18,2.07-0.35,3.11-0.52c18.81,10.53,32.54,28.03,43.47,46.23c11.19,18.68,19.61,38.87,26.82,59.38
		c12.05,34.76,20.33,70.71,26.95,106.87c7.02,38.81,10.47,78.31,9.58,117.76c-0.71,13.93-1.25,27.92-3.76,41.68
		c-3.86,22.33-10.35,44.15-18.68,65.2c-13.08,32.15-30.13,62.9-52.33,89.67c-10.97,13.62-23.79,25.61-37.23,36.7599
		c-10.63,8.7401-22.28,16.17-34.28,22.86c-6.86,4.97-15.05,7.41-22.33,11.6c-7.11,2.55-13.63,6.57-21.02,8.33
		c-9.89,2.77-19.59,6.36-29.76,8.03c-11.21,1.89-22.57,2.68-33.92,3.08c-8.01-0.38-16.05-0.95-23.99-2.11
		c-7.66-1.7-15.64-1.78-23.05-4.55c-13.1-3.61-25.85-8.58-37.83-14.9901c-10.11-5.5-20.29-11.09-29.05-18.63
		c-3.33-2.59-6.41-5.81-10.5-7.16c-6.16-1.06-12.36,0.53-18.53,0.75c-7.78,0.57-15.44-1.18-23.14-1.94
		c-11.86-1.14-22.88-6.01-33.66-10.76c-13.26-5.81-24.67-15.09-34.84-25.25c-5.69-6.41-11.37-12.95-15.45-20.54
		c-7.37-11.3-12.29-24.08-15.09-37.25c-3.73-12.23-3.58-25.16-3.28-37.8c0.14-6.56,0.85-13.12,2.65-19.44
		c1.34-4.56,1.22-9.35,2.11-13.98c3.19-13.11,6.77-26.12,10.72-39.02c5.65-15.43,11.01-31.04,18.58-45.68
		c4.59-11.03,10.5-21.44,16.03-32.01c6.57-13.1,14.21-25.63,22.03-38.01c3.78-6.78,8.57-12.93,12.16-19.82
		c5.75-10.91,13.79-20.36,20.33-30.78c8.61-13.52,17.31-27,27.02-39.76c18.39-27.28,38.13-53.67,59.26-78.9
		c4.78-5.57,10.33-10.42,15.13-15.99c8.89-10.15,19.31-18.75,28.99-28.1c6.8-5.91,14.31-10.91,21.41-16.43
		c7.52-5.38,14.93-11.09,23.44-14.85c16.15-7.96,34.59-13.18,52.64-9.8c5.55,0.94,10.35,4.43,15.96,5.07
		C415.89,74,419.23,71.8,422.92,70.76 M418.96,78.11c2.27,2.04,4.61,3.98,6.82,6.08c9.37,8.99,15.27,21.04,18.65,33.45
		c0.57,2.41,1.64,4.71,3.62,6.29c12.27,10.99,22.09,24.42,30.59,38.46c11.31,19.46,19.98,40.34,27.52,61.51
		c13.17,36.02,25.21,72.51,34.23,109.81c11.56,47.39,18.11,96.51,13.74,145.3c-0.57,6.4-2.01,12.73-1.85,19.18
		c8.8-27.32,13.55-55.75,17.0099-84.18c5.48-48.21,3.81-97.19-4.71-144.95c-1.36-6.93-3.24-13.75-4.21-20.75
		c-0.04-5.22-1.7-10.2-2.81-15.24c-3.9-16.2-8.12-32.37-13.85-48.02c0.12,0.38,0.35,1.16,0.46,1.55c-2.22-4.65-3.78-9.55-5.38-14.43
		c-4.82-12.84-11.1-25.07-18.02-36.89c-11.13-18.21-25.22-35.29-43.86-46.17C459.6,78.97,438.77,75.18,418.96,78.11 M328.42,99.36
		c-9.75,6-18.07,13.94-26.67,21.41c-30.6,27.57-57.81,58.87-81.05,92.86c-11.75,16.93-22.1,34.76-32.73,52.39
		c-31.93,52.45-65.99,104.28-88.02,161.92c-10.43,26.87-17.84,55.19-19.17,84.07c-1.03,21.71,2.42,43.8,11.55,63.61
		c7.61,16.58,22.31,29.76,39.7,35.34c14.06,4.8,29.84,5.0099,43.76-0.37c-10.8-18.56-23.31-36.3701-30.69-56.69
		c-3.9-10.16-4.79-21.15-5.3-31.9301c-0.25-14.99-2.5-30.03-0.61-44.99c2.75-24.01,11.35-46.76,18.07-69.83
		c9.48-30.04,21.94-59.13,36.95-86.81c9.35-18.07,19.77-35.57,30.11-53.08c27.31-45.31,57.3-89.59,95.26-126.74
		c8.55-8.59,18.35-15.83,28.55-22.34c10.42-6.52,21.84-11.51,33.85-14.22c13.03-2.99,26.96-2.31,39.45,2.56
		c4.1,1.6,7.78,4.08,11.87,5.69c-0.91-2.13-1.97-4.21-3.41-6.04c-6.16-8.09-13-16.03-21.97-21.09c-7.92-5-17.57-6.67-26.81-5.75
		C362.13,81.08,344.22,88.97,328.42,99.36 M390.35,113.48c-16.35,1.04-31.68,8.35-44.35,18.46c-16.14,12.46-29.33,28.22-41.51,44.46
		c-13.38,18.9-25.68,38.54-37.93,58.18c-24.09,38.59-46.87,78.17-64.73,120.07c-13.84,31.23-23.28,64.12-32.21,97.01
		c-4.76,19.2-7.66,39.2-5.13,58.96c4.31,28.76,12.57,57.34,27.63,82.39c14.57,24.65,36.21,44.82,61.19,58.66
		c37.64,21.19,83.12,28.28,125.35,18.98c32.86-7.13,64.63-21.58,89.41-44.62c20.45-18.5,35-42.21,49.66-65.28
		c11.41-18.59,19-39.34,23.45-60.64c8.5-41.19,5.85-83.85-1.52-124.99c-8.83-47.19-23.06-93.19-39.44-138.26
		c-6.59-17.74-12.81-35.7-21.46-52.57c-9.52-19.88-22.12-38.69-39.19-52.87C425.76,120.3,408.3,112.82,390.35,113.48z"/>
	<path fill="#FFFFFF" d="M418.96,78.11c19.81-2.93,40.64,0.86,57.95,11c18.64,10.88,32.73,27.96,43.86,46.17
		c6.92,11.82,13.2,24.05,18.02,36.89c1.6,4.88,3.16,9.78,5.38,14.43c6.3,20.31,12.37,40.77,16.2,61.71c0.97,7,2.85,13.82,4.21,20.75
		c8.52,47.76,10.19,96.74,4.71,144.95c-3.46,28.43-8.21,56.86-17.0099,84.18c-0.16-6.45,1.28-12.78,1.85-19.18
		c4.37-48.79-2.18-97.91-13.74-145.3c-9.02-37.3-21.06-73.79-34.23-109.81c-7.54-21.17-16.21-42.05-27.52-61.51
		c-8.5-14.04-18.32-27.47-30.59-38.46c-1.98-1.58-3.05-3.88-3.62-6.29c-3.38-12.41-9.28-24.46-18.65-33.45
		C423.57,82.09,421.23,80.15,418.96,78.11z"/>
	<path fill="#FFFFFF" d="M328.42,99.36c15.8-10.39,33.71-18.28,52.69-20.03c9.24-0.92,18.89,0.75,26.81,5.75
		c8.97,5.06,15.81,13,21.97,21.09c1.44,1.83,2.5,3.91,3.41,6.04c-4.09-1.61-7.77-4.09-11.87-5.69c-12.49-4.87-26.42-5.55-39.45-2.56
		c-12.01,2.71-23.43,7.7-33.85,14.22c-10.2,6.51-20,13.75-28.55,22.34c-37.96,37.15-67.95,81.43-95.26,126.74
		c-10.34,17.51-20.76,35.01-30.11,53.08c-15.01,27.68-27.47,56.77-36.95,86.81c-6.72,23.07-15.32,45.82-18.07,69.83
		c-1.89,14.96,0.36,30,0.61,44.99c0.51,10.78,1.4,21.77,5.3,31.9301c7.38,20.3199,19.89,38.13,30.69,56.69
		c-13.92,5.3799-29.7,5.17-43.76,0.37c-17.39-5.58-32.09-18.76-39.7-35.34c-9.13-19.81-12.58-41.9-11.55-63.61
		c1.33-28.88,8.74-57.2,19.17-84.07c22.03-57.64,56.09-109.47,88.02-161.92c10.63-17.63,20.98-35.46,32.73-52.39
		c23.24-33.99,50.45-65.29,81.05-92.86C310.35,113.3,318.67,105.36,328.42,99.36z"/>
	<path fill="#FFFFFF" d="M390.35,113.48c17.95-0.66,35.41,6.82,49.22,17.94c17.07,14.18,29.67,32.99,39.19,52.87
		c8.65,16.87,14.87,34.83,21.46,52.57c16.38,45.07,30.61,91.07,39.44,138.26c7.3701,41.14,10.02,83.8,1.52,124.99
		c-4.45,21.3-12.04,42.05-23.45,60.64c-14.66,23.07-29.21,46.78-49.66,65.28c-24.78,23.04-56.55,37.49-89.41,44.62
		c-42.23,9.3-87.71,2.21-125.35-18.98c-24.98-13.84-46.62-34.01-61.19-58.66c-15.06-25.05-23.32-53.63-27.63-82.39
		c-2.53-19.76,0.37-39.76,5.13-58.96c8.93-32.89,18.37-65.78,32.21-97.01c17.86-41.9,40.64-81.48,64.73-120.07
		c12.25-19.64,24.55-39.28,37.93-58.18c12.18-16.24,25.37-32,41.51-44.46C358.67,121.83,374,114.52,390.35,113.48z"/>
	<path fill="#AAD19A" d="M544.17,186.6c-0.11-0.39-0.34-1.17-0.46-1.55c5.73,15.65,9.95,31.82,13.85,48.02
		c1.11,5.04,2.77,10.02,2.81,15.24C556.54,227.37,550.47,206.91,544.17,186.6z"/>
	<path fill="#FFFFFF" d="M874.56,486.6c6.64-12.64,12.21-25.91,20.25-37.77c7.07,17.05,9.08,35.81,8.17,54.12
		c-0.79,23.34-6.48,46.2-13.75,68.29c-12.49,5.57-25.45,9.94-38.24,14.75c-19.41,7.27-39.34,13.22-58.29,21.7
		c-43.71,18.74-83.72,45.55-118.75,77.61c5.42-6.33,11.55-11.98,17.36-17.93c18.56-18.8,37.78-36.95,57.82-54.17
		c23.45-20.66,49.06-38.76,71.94-60.07c11.07-9.93,21.56-20.52,31.16-31.88C861.35,510.89,868.34,498.87,874.56,486.6z"/>
	<path fill="#FFFFFF" d="M949.8,553.82c25.29-15.16,50.52-30.44,75.71-45.78c2.65,22.86-2.87,45.51-6.32,67.98
		c-2.92,18.37-6.39,36.67-10.5,54.82c-0.81,4.2-4.23,7.05-6.55,10.41c1.65-1.33,3.22-2.74,4.86-4.1
		c-3.9,19.52-9.66,38.62-15.35,57.68c-11.96,38.71-26.32,76.71-43.47,113.43c-16.93,36.11-36.73,71.09-61.47,102.47
		c-20.75,26.57-44.29,50.81-68.68,74.04c-7.14,6.39-13.78,13.37-21.41,19.2c0.49,0.48,0.99,0.96,1.51,1.45
		c6.85-6.74,14.28-12.84,21.38-19.31c25.57-22.89,50.48-46.73,72.13-73.44c23.71-28.93,42.4-61.59,59.06-94.98
		c18.86-38.58,34.42-78.68,48.91-119.08c8.4-23.76,17.02-47.46,24.13-71.65c1.2-3.55,1.39-8.1,4.95-10.22
		c28.4701-19.76,62.1201-31.34,96.3401-35.87c6.34-0.86,12.73-1.43,19.15-1.43c-6.01,6.25-12.89,11.63-18.41,18.35
		c-24.25,26.88-41.13,60.08-49.71,95.19c-6.8101,26.17-6.5801,53.41-10.0801,80.08c-2.1799,17.72-6.04,35.36-12.91,51.89
		c-12.6499,32.24-30.45,62.26-51.27,89.87c-43.97,57.07-96.95,108.05-159.26,144.73c-32.58,18.5699-66.78,35.33-103.57,43.5699
		c-27.18,6-55.48,6.67-82.9399,2.1801c-19.75-3.26-39.14-8.5801-57.9901-15.28c-13.39-7.4301-26.35-15.99-37.23-26.85
		c-14.71-14.0701-26.16-31.5-33.32-50.54c-10.2-26.85-11.71-56.54-6.32-84.63c3.24-17.29,9.3-33.88,15.61-50.24
		c12.5099-31.37,28.67-61.26,47.95-88.98c7.52-10.4301,14.69-21.21,23.59-30.53c20.32-22.31,42.21-43.13,64.44-63.49
		c22.06-20.05,47.06-36.69,73.41-50.54c43.49-23.5099,91.02-37.77,136.7-56.2l-0.4,0.9c-2.21,4.93-4.27,9.92-6.65,14.77
		c-2.96,6.19-6.51,12.17-8.25,18.86c6.83-10.11,12.27-21.12,17.63-32.06c1.03-1.91,1.66-4.47,3.93-5.28
		C910.15,576.39,930.44,565.86,949.8,553.82 M793.99,1006.73c-2.04,2.52-4.44,4.7-6.65,7.06c2.72-1.86,4.85-4.56,7.92-5.9
		C794.79,1007.53,794.37,1007.14,793.99,1006.73 M777.69,1022.38c3.5-2.61,6.66-5.66,9.62-8.87
		C783.86,1016.19,780.75,1019.27,777.69,1022.38z"/>
	<path fill="#C6DEE9" d="M875.82,603.69c2.38-4.85,4.44-9.84,6.65-14.77c0.6801,0.39,2.05,1.17,2.73,1.57
		c-5.36,10.94-10.8,21.95-17.63,32.06C869.31,615.86,872.86,609.88,875.82,603.69z"/>
	<path fill="#E5E7D2" d="M439.04,661.15c12-6.69,23.65-14.12,34.28-22.86c0.33,47.23,0.05,94.46,0.14,141.7
		c0,139.34-0.01,278.6901,0,418.03c0.14,4.36-3.06,7.6699-5.22,11.14c-5.67,8.73-11.11,17.61-16.5,26.5299
		c-78.41,131.4901-137.92,273.88-180.12,420.9301c-24.37,85.55-43.46,172.59-57.77,260.38h-0.86c-7.9-48.8-14.16-97.86-19.93-146.96
		c-22.46-195.36-29.65-393.0801-11.07-589.0801c5.7-60.3199,14-120.3999,24.75-180.03c13.86-76.84,31.85-152.88,51.77-228.36
		c6.14-23.96,12.34-47.98,20.95-71.2c1.75-5.32,4.51-10.3,5.51-15.84c7.41,2.77,15.39,2.85,23.05,4.55
		c7.94,1.16,15.98,1.73,23.99,2.11c11.35-0.4,22.71-1.19,33.92-3.08c10.17-1.67,19.87-5.26,29.76-8.03
		c7.39-1.76,13.91-5.78,21.02-8.33C423.99,668.56,432.18,666.12,439.04,661.15z"/>
	<path fill="#AAD19A" d="M238.87,690.84c2.62-6.82,4.87-13.82,8.27-20.3c11.98,6.41,24.73,11.38,37.83,14.9901
		c-1,5.54-3.76,10.52-5.51,15.84c-8.61,23.22-14.81,47.24-20.95,71.2c-19.92,75.48-37.91,151.52-51.77,228.36
		c-10.75,59.6301-19.05,119.71-24.75,180.03c-18.58,196-11.39,393.7201,11.07,589.0801c5.77,49.1,12.03,98.1599,19.93,146.96h-77.84
		c-2.18-18.71-5.27-37.3199-7.33-56.05c-15.72-127.2799-20.52-255.73-18.09-383.8899c4.84-223.65,34.82-446.8701,90.78-663.5001
		C211.18,772.03,223.89,731.02,238.87,690.84z"/>
	<path fill="#F8F3BC" d="M1198.02,907.91c8.9399-1.54,17.87-3.71,27-3.5699c7.28-0.03,14.58-0.26,21.86,0.1299
		c11.17,1.13,22.01,4.29,32.51,8.2c11.21,3.96,18.7,14.35,22.0499,25.39c5.4401,19.1,4.2101,39.39,9.67,58.48
		c3.12,9.72,7.4,19.02,12.13,28.05c2.67,5.14,7.3101,8.92,9.86,14.15c3.3201,6.46,6.9,12.79,10.2001,19.27
		c3.2799,6.4,4.4399,13.59,7.11,20.23c9.23-0.3,17.9,3.1801,26.73,5.34c18.92,6.75,36.47,17.4801,51.08,31.29
		c11.5,12.72,20.49,28.39,22.8,45.6c2.87,10.87,4.87,22.05,9.28,32.47c3.6599,9.6201,8.83,18.64,14.7799,27.03
		c4.88,7.15,11.7301,12.85,15.54,20.75c4.02,6.5701,5.36,14.25,6.5699,21.75c0.7401,5.1801-0.3799,10.38-0.8899,15.54
		c-1.4401,12.01-6.89,23.03-12.7001,33.46c-4.1799,7.04-8.33,14.1801-13.91,20.23c-5.5499,6.1001-10.4099,12.9501-17.1299,17.87
		c-1.7301,1.14-2.9,2.8401-3.4701,4.8301c6.0701,1.74,12.16,3.45,17.9401,6.0499c9.7999,3.2301,18.77,8.4501,27.5499,13.79
		c12.27,7.49,22.66,17.79,31.05,29.4c3.92,5.4399,7.2,11.64,7.91,18.39c-0.3,5.23-3.63,10.25-8.38,12.52
		c-11.0601,6.0199-24.0601,5.6-36.23,4.86c-8.7001-1-17.4-1.99-25.9801-3.7201c-6.58-1.37-13.36-0.95-19.9299-2.2999
		c-6.6901-1.33-13.54-0.55-20.27-1.41c-7.28-0.89-14.5601,0.29-21.8199,0.7001c-10.7201,0.75-21.3101,2.6499-31.9501,4.0299
		c-5.11,0.73-9.98,2.54-15.02,3.5801c-20.7999,4.24-41.09,10.5699-61.37,16.7899c-4.97,1.76-9.95,3.5701-15.2,4.26
		c0.74,0.23,1.51,0.48,2.28,0.74c-9.01,2.29-17.5801,5.9401-26.37,8.9301c-41.25,15.24-82.6001,31.09-125.9301,39.4299
		c-11.05,1.91-22.14,3.92-33.38,4.15c-10.98,1.1901-22.08,1.23-33.0599,0.11c-16.3601-0.5-32.66-2.87-48.6-6.5399
		c-1.33,6.86-0.48,13.86-0.68,20.7999c0.05,129.3501-0.13,258.7001,0.09,388.04H744.13c-0.02-144.34-0.01-288.6801,0-433.01
		c-0.21-3.35,3.65-4.4,5.79-6.12c17.96-11.86,35.97-23.6801,54.64-34.42c15.48-8.8199,30.53-18.38,45.35-28.2799
		c-7.84-10.12-16.17-20.02-21.94-31.53c-13.37,4.1-25.59,11.02-38.02,17.26c-15.56,7.95-30.67,16.72-45.83,25.39
		c-0.04-103.92,0.08-207.8401-0.06-311.76c28.63-6.65,56-17.9401,81.95-31.6c34.47-18.5,66.44-41.41,95.99-66.97
		c6.67-6.3,13.61-12.3,20.38-18.4901c11.85-11.2,23.18-22.96,33.79-35.35c12.7-13.27,23.71-28.01,35.17-42.31
		c0.54,8.71,0.23,17.45,0.3,26.19c0.08,25.11-0.14,50.22,0.07,75.33c4.91-2.79,9.03-6.66,13.35-10.23
		c22.7899-18.89,45.1-38.41,69.1399-55.71C1125.51,933.41,1160.66,916.5,1198.02,907.91 M1176.54,932.73
		c-34.61,11.19-64.75,32.37-93.65,53.89c-15.55,10.69-30.22,22.58-45.14,34.11c-14.68,10.6-28.42,22.42-43.33,32.6801
		c-15.6,11.36-32.67,20.45-48.57,31.37c-7.47,5.28-15.79,9.3099-22.79,15.25c-13.92,9.87-25.06,22.95-36.33,35.61
		c-6.86,8.73-12.26,18.48-18.17,27.86c-3.82,5.74-6.35,12.1801-9.42,18.3199c-19.2,42.63-28.27,89.51-28.49,136.15
		c0.75,18.8301,1.93,37.85,7.05,56.1c1.84,6.38,3.81,12.9701,8.02,18.26c5.83,7.1001,11.11,14.7101,17.8101,21.0601
		c8.05,7.9399,15.93,16.13,24.89,23.08c47.09,39.22,106.67,62.51,167.59,67.74c11.99,0.5,24,2.0801,35.99,0.6801
		c28.86-0.85,57.46-6.42,84.99-14.96c40.08-11.76,78.38-28.62,117.38-43.39c11.03-3.6801,21.89-7.8301,32.83-11.77
		c17.6801-5.3301,35.52-10.25,53.74-13.4301c7.7101-1.9299,15.6801-2.14,23.53-3.3099c6.17-0.9401,12.4401-0.42,18.64-1.0901
		c6.64-0.6599,13.34-0.5199,19.97,0.3201c11.4,0.64,22.67,2.6,33.99,4.05c10.0701,1.2899,20.3301,3.2699,30.4901,1.74
		c2.6699-0.79,7.7699-2.1801,5.6599-5.9401c-5.36-11.01-13.9199-20.3199-23.72-27.53c-10.5699-6.83-21.97-12.38-33.96-16.1699
		c-16.36-5.66-33.61-7.6901-50.62-10.36c-14.29-1.5701-28.8401-1.6901-42.8101-5.4c-9.0599-2.14-17.65-5.85-26.17-9.51
		c-17.2999-7.4401-33.1499-17.87-50.7799-24.61c-10.0601-4.63-20.8101-7.51-31.7101-9.3c-7.6799-2.03-15.63-1.87-23.47-2.5699
		c-26.5499-0.98-52.99,2.83-78.99,7.86c-19.8099,3.65-39.3199,8.83-59.16,12.28c12.9601-2.9401,25.67-6.87,38.49-10.3501
		c18.77-5.1,37.63-9.97,56.77-13.47c21.73-4.4,44.02-5.51,66.12-4.16c18.4,1.5,36.26,7.0601,52.98,14.7401
		c10.3201,4.2899,20.02,9.9299,30.4901,13.8899c7.63,3.4301,15.7899,5.39,23.7799,7.8201c23.48,5.11,47.52,6.5699,71.29,9.77
		c3.29,0.3099,7.67,3.3999,10.09-0.11c11.5801-13.8,20.7101-29.42,30.62-44.41c4.54-7.14,8.3401-14.74,11.6901-22.5
		c2.2-6.4501,5.1899-13.02,4.41-20c-0.4601-8.23-4.8-15.55-9.7101-21.92c-6.61-8.63-14.64-16.0499-21.48-24.48
		c-5.29-7.65-9.64-16.04-12.04-25.0599c-3.34-10.7201-5.12-21.8301-8.1699-32.6201c-1.9601-8.99-6.13-17.35-10.9601-25.1
		c-5.87-7.37-12.62-14.14-20.3999-19.48c-8.87-6.37-19.2001-10.25-29.4801-13.6799c-7.97-2.41-16.1899-4.8-24.6-4.3101
		c0.03,8.98-2.39,17.73-5.1,26.21c-8.3099,22.03-23.1,40.91-39.5599,57.4601c-20.25,20.96-42.6201,39.72-65.4,57.85
		c-9.16,6.45-17.66,13.7999-27.0901,19.87c-6.21,3.9299-11.58,9.08-18.0399,12.63c-6.4,3.53-12.17,8.0499-18.4401,11.77
		c-17.71,10.71-35.61,21.09-53.97,30.61c-17.22,7.98-34.15,16.66-51.86,23.51c-10.67,3.1899-21.62,5.47-32.5701,7.4199
		c4.64-2.6399,9.8201-4.0599,14.7201-6.12c26.5399-11.08,52.96-22.71,77.74-37.3999c8.6-4.9401,17.38-9.6101,25.41-15.4501
		c16.7799-9.63,32.2999-21.1899,48.36-31.91c13.83-10.0499,27.64-20.12,40.89-30.9199c8.34-7.01,17.8199-12.8,24.9199-21.17
		c4.64-5.35,10.03-9.98,14.61-15.37c12.2101-13.99,24.01-28.45,33.67-44.34c8.8-13.65,16.17-28.72,18.1799-45
		c1.28-12.48-2.62-24.99-8.6299-35.8101c-9.5601-17.6899-22.89-33.11-31.16-51.52c-3.38-7.86-5.3201-16.27-5.97-24.78
		c-1.25-11.3199-0.7001-22.94-4-33.94c-1.42-6.5099-4.8101-12.42-8.9-17.6c-7.4601-8.78-19.3201-12.39-30.49-12.82
		C1224.25,918.91,1199.9,924.97,1176.54,932.73z"/>
	<path fill="#FFFFFF" d="M1176.54,932.73c23.36-7.76,47.71-13.82,72.5-13.18c11.1699,0.43,23.0299,4.04,30.49,12.82
		c4.09,5.18,7.48,11.09,8.9,17.6c3.2999,11,2.75,22.6201,4,33.94c0.6499,8.51,2.59,16.92,5.97,24.78
		c8.27,18.41,21.6,33.83,31.16,51.52c6.0099,10.8201,9.9099,23.3301,8.6299,35.8101c-2.0099,16.28-9.3799,31.35-18.1799,45
		c-9.66,15.89-21.46,30.35-33.67,44.34c-4.58,5.39-9.97,10.02-14.61,15.37c-7.1,8.37-16.58,14.16-24.9199,21.17
		c-13.25,10.7999-27.0601,20.87-40.89,30.9199c-16.0601,10.7201-31.5801,22.28-48.36,31.91c-8.03,5.84-16.8101,10.51-25.41,15.4501
		c-24.78,14.6899-51.2001,26.3199-77.74,37.3999c-4.9,2.0601-10.0801,3.4801-14.7201,6.12c10.9501-1.95,21.9-4.23,32.5701-7.4199
		c17.71-6.85,34.64-15.53,51.86-23.51c18.36-9.52,36.26-19.9,53.97-30.61c6.27-3.7201,12.04-8.24,18.4401-11.77
		c6.46-3.55,11.83-8.7001,18.0399-12.63c9.4301-6.0701,17.9301-13.42,27.0901-19.87c22.7799-18.13,45.15-36.89,65.4-57.85
		c16.46-16.55,31.25-35.4301,39.5599-57.4601c2.71-8.48,5.13-17.23,5.1-26.21c8.41-0.49,16.63,1.9,24.6,4.3101
		c10.28,3.4299,20.6101,7.3099,29.4801,13.6799c7.7799,5.34,14.5299,12.11,20.3999,19.48c4.8301,7.75,9,16.11,10.9601,25.1
		c3.0499,10.79,4.83,21.9,8.1699,32.6201c2.4,9.0199,6.75,17.4099,12.04,25.0599c6.84,8.4301,14.87,15.85,21.48,24.48
		c4.91,6.37,9.25,13.6901,9.7101,21.92c0.7799,6.98-2.2101,13.5499-4.41,20c-3.35,7.76-7.15,15.36-11.6901,22.5
		c-9.9099,14.99-19.0399,30.61-30.62,44.41c-2.4199,3.5099-6.7999,0.4199-10.09,0.11c-23.77-3.2001-47.8101-4.66-71.29-9.77
		c-7.99-2.4301-16.1499-4.39-23.7799-7.8201c-10.4701-3.96-20.17-9.6-30.4901-13.8899c-16.72-7.6801-34.58-13.2401-52.98-14.7401
		c-22.1-1.35-44.39-0.24-66.12,4.16c-19.14,3.5-38,8.37-56.77,13.47c-12.8199,3.4801-25.5299,7.41-38.49,10.3501
		c19.8401-3.4501,39.3501-8.63,59.16-12.28c26-5.03,52.4401-8.84,78.99-7.86c7.84,0.7,15.79,0.5399,23.47,2.5699
		c10.9,1.79,21.65,4.67,31.7101,9.3c17.63,6.74,33.48,17.1699,50.7799,24.61c8.52,3.66,17.1101,7.37,26.17,9.51
		c13.97,3.71,28.52,3.83,42.8101,5.4c17.01,2.6699,34.26,4.7,50.62,10.36c11.99,3.7899,23.39,9.34,33.96,16.1699
		c9.8,7.2101,18.36,16.52,23.72,27.53c2.11,3.76-2.99,5.15-5.6599,5.9401c-10.16,1.5299-20.42-0.4501-30.4901-1.74
		c-11.3199-1.4501-22.59-3.41-33.99-4.05c-6.63-0.84-13.33-0.98-19.97-0.3201c-6.2,0.67-12.47,0.15-18.64,1.0901
		c-7.85,1.1699-15.8199,1.38-23.53,3.3099c-18.22,3.1801-36.0599,8.1-53.74,13.4301c-10.9399,3.9399-21.7999,8.09-32.83,11.77
		c-39,14.77-77.3,31.63-117.38,43.39c-27.53,8.5399-56.13,14.11-84.99,14.96c-11.99,1.4-24-0.1801-35.99-0.6801
		c-60.92-5.23-120.5-28.52-167.59-67.74c-8.96-6.95-16.84-15.14-24.89-23.08c-6.7-6.35-11.98-13.96-17.8101-21.0601
		c-4.21-5.2899-6.18-11.88-8.02-18.26c-5.12-18.25-6.3-37.2699-7.05-56.1c0.22-46.64,9.29-93.52,28.49-136.15
		c3.07-6.1399,5.6-12.58,9.42-18.3199c5.91-9.38,11.31-19.13,18.17-27.86c11.27-12.66,22.41-25.74,36.33-35.61
		c7-5.9401,15.32-9.97,22.79-15.25c15.9-10.92,32.97-20.01,48.57-31.37c14.91-10.26,28.65-22.0801,43.33-32.6801
		c14.92-11.53,29.59-23.42,45.14-34.11C1111.79,965.1,1141.9301,943.92,1176.54,932.73z"/>
	<path fill="#C9D9E1" d="M796.62,1003.97c7.63-5.83,14.27-12.81,21.41-19.2c0.37,0.34,1.11,1.01,1.48,1.34
		c-7.1,6.47-14.53,12.57-21.38,19.31C797.61,1004.93,797.11,1004.45,796.62,1003.97z"/>
	<path fill="#AAD19A" d="M793.99,1006.73c0.38,0.41,0.8,0.8,1.27,1.16c-3.07,1.34-5.2,4.04-7.92,5.9
		C789.55,1011.43,791.95,1009.25,793.99,1006.73z"/>
	<path fill="#AAD19A" d="M777.69,1022.38c3.06-3.11,6.17-6.19,9.62-8.87C784.35,1016.72,781.19,1019.77,777.69,1022.38z"/>
	<path fill="#E5E7D2" d="M473.13,1292.29c0.64,8.21,0.24,16.4399,0.33,24.6699c-0.05,112.6801,0.11,225.36-0.08,338.04
		c-22.87,25.05-45.06,50.75-65.88,77.54c-22.81,28.95-43.82,59.2799-63.68,90.3099c-19.68,30.79-38.61,62.1-56.17,94.15H264.7
		c29.47-178.67,79.72-354.39,154.95-519.3C436.25,1361.97,453.52,1326.48,473.13,1292.29z"/>
	<path fill="#B4E1F8" d="M1253.3,1471.01c8.7899-2.99,17.36-6.64,26.37-8.9301c-0.37,41.9801-0.0601,83.9601-0.16,125.9401
		c-0.0601,109.66,0.13,219.3199-0.1,328.98h-267.67c-0.22-129.34-0.04-258.6899-0.09-388.04c0.2-6.9399-0.65-13.9399,0.68-20.7999
		c15.94,3.6699,32.2399,6.0399,48.6,6.5399c10.98,1.12,22.08,1.0801,33.0599-0.11c11.24-0.23,22.33-2.24,33.38-4.15
		C1170.7,1502.1,1212.05,1486.25,1253.3,1471.01z"/>
	<path fill="#E5E7D2" d="M408.45,1846.59c20.46-32.1899,42.35-63.47,64.83-94.27c0.43,43.91,0.06,87.8301,0.18,131.7401
		c-0.21,10.97,0.45,21.98-0.35,32.9399h-107.7C379.38,1893.3,393.49,1869.6801,408.45,1846.59z"/>
</g>
</svg>
